<?xml version="1.0" encoding="UTF-8"?>
<svg xmlns="http://www.w3.org/2000/svg" viewBox="0 0 6400 2800">
  <defs>
    <style>
      .cls-1 {
        fill: none;
      }
    </style>
  </defs>
  <rect class="cls-1" width="6400" height="2800"/>
  <g>
    <path d="m1882.19,2395.42c-42.62,0-77.3,34.67-77.3,77.3s34.67,77.3,77.3,77.3,77.3-34.67,77.3-77.3-34.67-77.3-77.3-77.3Zm0,105.24c-15.41,0-27.94-12.53-27.94-27.94s12.53-27.94,27.94-27.94,27.94,12.53,27.94,27.94-12.53,27.94-27.94,27.94Z"/>
    <path d="m2292.91,2395.42c-42.62,0-77.3,34.67-77.3,77.3s34.67,77.3,77.3,77.3,77.3-34.67,77.3-77.3-34.67-77.3-77.3-77.3Zm0,105.24c-15.41,0-27.94-12.53-27.94-27.94s12.53-27.94,27.94-27.94,27.94,12.53,27.94,27.94-12.54,27.94-27.94,27.94Z"/>
    <path d="m1945.77,2175.13l415.54-41.69c10.13-1.02,18.6-8.15,21.32-17.96l93.11-335.89c1.98-7.15.64-14.82-3.66-20.88-4.3-6.06-11.09-9.85-18.5-10.34l-695.09-45.78c-.4-.03-.81-.05-1.21-.06-.67-.01-2.12-2.03-3.24-4.56l-34.79-78.21c-2.42-5.45-6.74-9.84-12.15-12.35l-108.41-50.34c-12.37-5.76-27.04-.37-32.77,11.99-5.74,12.36-.37,27.03,11.99,32.77l95.48,44.33c2.5,1.16,5.44,4.15,6.57,6.67l213.91,480.9c1.12,2.52-.02,5.45-2.53,6.62-64.58,30.16-109.68,97.6-109.68,175.8,0,13.63,11.05,24.68,24.68,24.68h562.41c13.63,0,24.68-11.05,24.68-24.68s-11.05-24.68-24.68-24.68h-530.72c-2.76,0-4.64-2.21-4.1-4.92,10.85-54.22,50.93-97.17,101.99-109.83,2.68-.66,7.1-1.33,9.85-1.61Zm-102.41-287.46l152.04,4.17c2.76.08,5.46,2.33,6.02,5.03l18.47,88.02c.57,2.7-1.21,4.96-3.97,5.05l-125.21,3.89c-2.76.09-5.91-1.89-7.03-4.41l-43.29-97.31c-1.12-2.52.21-4.51,2.97-4.43Zm191.02,5.24l168.54,4.63c2.76.08,4.91,2.37,4.81,5.13l-2.87,76.41c-.1,2.76-2.43,5.07-5.19,5.15l-145.13,4.51c-2.76.09-5.46-2.04-6.02-4.74l-18.11-86.33c-.57-2.7,1.21-4.83,3.97-4.76Zm-11.93-33.19l-18.18-86.65c-.57-2.7,1.21-4.75,3.96-4.56l199.04,13.11c2.76.18,4.91,2.57,4.8,5.33l-2.91,77.6c-.1,2.76-2.43,4.94-5.19,4.86l-175.5-4.65c-2.76-.07-5.46-2.32-6.02-5.03Zm341.82,119.39l-126.34,3.93c-2.76.09-4.91-2.08-4.81-4.84l2.81-74.75c.1-2.76,2.43-4.94,5.19-4.86l144.31,3.96c2.76.08,4.4,2.29,3.66,4.96l-18.47,66.64c-.74,2.66-3.57,4.89-6.33,4.97Zm-160.84,38.29l-2.91,77.6c-.1,2.76-2.42,5.22-5.16,5.5l-114.88,11.52c-2.75.28-5.43-1.69-6-4.39l-17.97-85.65c-.57-2.7,1.21-4.96,3.97-5.05l138.15-4.36c2.76-.09,4.91,2.08,4.81,4.84Zm131.19,69.12l-100.98,10.13c-2.75.28-4.89-1.74-4.79-4.5l2.84-75.65c.1-2.76,2.42-5.07,5.18-5.15l119.51-3.77c2.76-.09,4.4,2,3.66,4.66l-19.12,68.97c-.74,2.66-3.56,5.04-6.31,5.32Zm58.6-212.11l-151.05-4.01c-2.76-.07-4.91-2.37-4.81-5.13l2.87-76.49c.1-2.76,2.42-4.85,5.18-4.67l169.69,11.18c2.76.18,4.39,2.49,3.65,5.15l-19.21,69.28c-.74,2.66-3.57,4.76-6.33,4.69Zm-418.16-103.28l18.42,87.81c.57,2.7-1.21,4.83-3.97,4.76l-158.66-4.21c-2.76-.07-5.91-2.18-7.03-4.7l-43.08-96.85c-1.12-2.52.2-4.42,2.96-4.24l185.35,12.21c2.76.18,5.45,2.52,6.02,5.22Zm-71.85,250.75l118.65-3.75c2.76-.09,5.46,2.03,6.02,4.74l18.38,87.58c.57,2.7-1.2,5.12-3.95,5.39l-76.9,7.71c-5.53.05-11,.37-16.41.93-2.75.28-5.88-1.47-7-3.99l-41.76-93.88c-1.12-2.52.21-4.64,2.97-4.73Z"/>
  </g>
</svg>