<?xml version="1.0" encoding="UTF-8"?>
<svg id="Layer_1" data-name="Layer 1" xmlns="http://www.w3.org/2000/svg" viewBox="0 0 800 800">
  <defs>
    <style>
      .cls-1 {
        fill: #fff;
      }

      .cls-2 {
        fill: #252562;
      }

      .cls-3 {
        fill: #231f20;
      }

      .cls-4 {
        fill: #47a0d9;
      }

      .cls-5 {
        fill: #469ccc;
      }

      .cls-6 {
        fill: #282661;
      }
    </style>
  </defs>
  <g>
    <g>
      <path class="cls-2" d="m392.9,147.91c3.89-3.46,10.26-3.46,14.15,0l7.43,6.6c3.89,3.46,10.71,4.07,15.16,1.36l8.49-5.17c4.45-2.71,10.71-1.57,13.92,2.53l6.13,7.82c3.21,4.1,9.81,5.92,14.67,4.05l9.27-3.57c4.86-1.87,10.82.37,13.24,4.97l4.63,8.79c2.43,4.6,8.6,7.57,13.71,6.6l9.76-1.86c5.11-.97,10.58,2.29,12.14,7.26l2.99,9.48c1.57,4.96,7.11,8.99,12.31,8.94l9.94-.08c5.2-.04,10,4.14,10.65,9.31l1.25,9.86c.65,5.16,5.39,10.11,10.52,11l9.79,1.69c5.13.89,9.1,5.86,8.82,11.06l-.53,9.92c-.28,5.2,3.49,10.91,8.38,12.7l9.33,3.41c4.89,1.79,7.9,7.39,6.7,12.46l-2.29,9.67c-1.2,5.06,1.49,11.36,5.98,13.99l8.57,5.02c4.49,2.63,6.46,8.69,4.37,13.45l-3.98,9.1c-2.09,4.77-.56,11.44,3.39,14.83l7.54,6.47c3.95,3.39,4.8,9.7,1.9,14.02l-5.54,8.24c-2.9,4.32-2.6,11.16.68,15.2l6.26,7.71c3.28,4.04,2.99,10.4-.63,14.13l-6.93,7.12c-3.63,3.73-4.55,10.52-2.04,15.08l4.78,8.71c2.51,4.56,1.09,10.77-3.15,13.79l-8.09,5.77c-4.24,3.02-6.35,9.54-4.7,14.47l3.15,9.42c1.65,4.94-.85,10.79-5.56,13.01l-8.99,4.23c-4.71,2.22-7.95,8.25-7.21,13.4l1.42,9.83c.74,5.15-2.76,10.46-7.79,11.81l-9.6,2.56c-5.03,1.34-9.3,6.7-9.49,11.9l-.36,9.93c-.19,5.2-4.59,9.8-9.78,10.22l-9.9.81c-5.19.42-10.34,4.93-11.46,10.01l-2.13,9.7c-1.11,5.08-6.26,8.83-11.44,8.31l-9.89-.97c-5.18-.51-11.06,3-13.06,7.8l-3.83,9.17c-2,4.8-7.74,7.57-12.75,6.14l-9.55-2.72c-5.01-1.43-11.42.98-14.25,5.35l-5.4,8.34c-2.83,4.37-8.97,6.06-13.64,3.76l-8.91-4.39c-4.67-2.3-11.41-1.08-14.97,2.72l-6.8,7.24c-3.56,3.79-9.9,4.36-14.09,1.27l-7.99-5.91c-4.18-3.09-11.03-3.09-15.22,0l-7.99,5.91c-4.18,3.1-10.52,2.52-14.09-1.27l-6.8-7.24c-3.56-3.79-10.3-5.01-14.97-2.72l-8.91,4.39c-4.67,2.3-10.81.6-13.64-3.76l-5.4-8.34c-2.83-4.37-9.24-6.77-14.25-5.35l-9.55,2.72c-5.01,1.43-10.74-1.33-12.75-6.14l-3.83-9.17c-2-4.8-7.88-8.32-13.06-7.8l-9.89.97c-5.18.51-10.33-3.23-11.44-8.31l-2.13-9.7c-1.11-5.08-6.27-9.59-11.46-10.01l-9.9-.81c-5.19-.42-9.59-5.02-9.78-10.22l-.36-9.93c-.19-5.2-4.46-10.55-9.49-11.9l-9.6-2.56c-5.03-1.34-8.54-6.65-7.79-11.81l1.42-9.83c.74-5.15-2.5-11.18-7.21-13.4l-8.99-4.23c-4.71-2.22-7.21-8.07-5.56-13.01l3.15-9.42c1.65-4.94-.47-11.45-4.7-14.47l-8.09-5.77c-4.24-3.02-5.65-9.23-3.15-13.79l4.78-8.71c2.51-4.56,1.59-11.35-2.04-15.08l-6.93-7.12c-3.63-3.73-3.91-10.09-.63-14.13l6.26-7.71c3.28-4.04,3.59-10.88.68-15.2l-5.54-8.24c-2.9-4.32-2.05-10.63,1.9-14.02l7.54-6.47c3.95-3.39,5.47-10.07,3.39-14.83l-3.98-9.1c-2.09-4.77-.12-10.82,4.37-13.45l8.57-5.02c4.49-2.63,7.18-8.93,5.98-13.99l-2.29-9.67c-1.2-5.06,1.82-10.67,6.7-12.46l9.33-3.41c4.89-1.79,8.66-7.5,8.38-12.7l-.53-9.92c-.28-5.2,3.69-10.17,8.82-11.06l9.79-1.69c5.13-.89,9.86-5.83,10.52-11l1.25-9.86c.65-5.16,5.45-9.35,10.65-9.31l9.94.08c5.2.04,10.74-3.98,12.31-8.94l2.99-9.48c1.57-4.96,7.03-8.23,12.14-7.26l9.76,1.86c5.11.97,11.28-2,13.71-6.6l4.63-8.79c2.43-4.6,8.39-6.84,13.24-4.97l9.27,3.57c4.86,1.87,11.46.05,14.67-4.05l6.13-7.82c3.21-4.1,9.47-5.23,13.92-2.53l8.49,5.17c4.44,2.71,11.26,2.09,15.15-1.36l7.43-6.6Z"/>
      <path class="cls-1" d="m421.82,655.3c-2.35,0-4.7-.69-6.63-2.12l-7.99-5.91c-3.99-2.95-10.49-2.95-14.48,0l-7.99,5.91c-4.44,3.28-11.13,2.68-14.91-1.34l-6.8-7.24c-3.4-3.62-9.79-4.78-14.25-2.59l-8.91,4.39c-4.95,2.44-11.43.65-14.43-3.98l-5.4-8.34c-2.7-4.17-8.78-6.45-13.56-5.09l-9.55,2.72c-5.31,1.52-11.36-1.4-13.49-6.5l-3.83-9.17c-1.91-4.58-7.48-7.92-12.43-7.43l-9.89.97c-5.51.54-10.93-3.41-12.11-8.8l-2.13-9.71c-1.06-4.85-5.95-9.12-10.9-9.53l-9.9-.81c-5.5-.45-10.14-5.3-10.34-10.82l-.36-9.93c-.18-4.96-4.23-10.04-9.03-11.32l-9.6-2.56c-5.33-1.42-9.03-7.03-8.25-12.49l1.42-9.83c.71-4.91-2.37-10.63-6.86-12.75l-8.99-4.23c-5-2.35-7.63-8.53-5.88-13.76l3.15-9.42c1.57-4.71-.43-10.89-4.47-13.77l-8.09-5.77c-4.5-3.21-5.99-9.75-3.33-14.59l4.78-8.71c2.39-4.35,1.52-10.79-1.94-14.35l-6.93-7.12c-3.85-3.96-4.15-10.67-.67-14.95l6.26-7.72c3.13-3.86,3.42-10.34.65-14.46l-5.54-8.25c-3.08-4.58-2.18-11.24,2.01-14.83l7.54-6.47c3.77-3.23,5.21-9.57,3.22-14.12l-3.98-9.1c-2.21-5.06-.14-11.45,4.63-14.24l8.57-5.02c4.28-2.51,6.84-8.48,5.69-13.31l-2.29-9.67c-1.27-5.37,1.91-11.29,7.09-13.18l9.33-3.41c4.66-1.71,8.24-7.13,7.98-12.08l-.53-9.92c-.29-5.51,3.89-10.76,9.33-11.7l9.79-1.69c4.89-.84,9.38-5.54,10.01-10.47l1.25-9.86c.69-5.45,5.7-9.85,11.19-9.85.03,0,.06,0,.09,0l9.94.08h.08c4.94,0,10.15-3.8,11.63-8.51l2.99-9.48c1.66-5.27,7.43-8.71,12.85-7.68l9.76,1.86c4.88.93,10.73-1.89,13.05-6.28l4.63-8.79c2.58-4.88,8.86-7.24,14.02-5.26l9.27,3.57c4.64,1.78,10.89.06,13.96-3.85l6.13-7.82c3.41-4.35,10.01-5.55,14.73-2.67l8.49,5.17c4.24,2.58,10.71,2,14.42-1.3l7.43-6.6c4.13-3.67,10.84-3.67,14.97,0l7.43,6.6c3.71,3.3,10.18,3.88,14.42,1.3l8.49-5.17c4.72-2.87,11.32-1.67,14.73,2.67l6.13,7.82c3.06,3.91,9.32,5.64,13.96,3.85l9.27-3.57c5.15-1.98,11.44.38,14.01,5.26l4.63,8.79c2.32,4.39,8.17,7.21,13.04,6.28l9.76-1.86c5.43-1.03,11.19,2.41,12.85,7.68l2.99,9.48c1.49,4.71,6.69,8.51,11.63,8.51h.08l9.94-.08s.06,0,.09,0c5.49,0,10.5,4.4,11.19,9.85l1.25,9.86c.62,4.93,5.11,9.62,10.01,10.47l9.79,1.69c5.44.94,9.63,6.19,9.33,11.7l-.53,9.92c-.26,4.96,3.31,10.38,7.98,12.08l9.33,3.41c5.19,1.9,8.37,7.81,7.09,13.18l-2.29,9.67c-1.15,4.83,1.41,10.8,5.69,13.31l8.57,5.02c4.76,2.79,6.84,9.18,4.62,14.24l-3.98,9.1c-1.99,4.55-.54,10.88,3.22,14.12l7.54,6.47c4.19,3.6,5.09,10.25,2.01,14.83l-5.54,8.25c-2.77,4.12-2.48,10.61.65,14.46l6.26,7.72c3.48,4.29,3.18,11-.67,14.95l-6.93,7.12c-3.46,3.56-4.33,10-1.94,14.35l4.78,8.71c2.66,4.84,1.16,11.39-3.33,14.59l-8.09,5.77c-4.04,2.88-6.05,9.06-4.47,13.77l3.15,9.42c1.75,5.24-.89,11.41-5.88,13.76l-8.99,4.23c-4.49,2.12-7.57,7.84-6.86,12.75l1.42,9.83c.79,5.47-2.91,11.07-8.25,12.49l-9.6,2.56c-4.8,1.28-8.85,6.36-9.03,11.32l-.36,9.93c-.2,5.52-4.84,10.37-10.34,10.82l-9.9.81c-4.95.4-9.84,4.68-10.9,9.53l-2.13,9.71c-1.18,5.39-6.62,9.34-12.11,8.8l-9.89-.97c-4.94-.49-10.52,2.84-12.43,7.43l-3.83,9.17c-2.13,5.09-8.18,8.01-13.49,6.5l-9.55-2.72c-4.78-1.36-10.86.92-13.56,5.09l-5.4,8.34c-3,4.63-9.48,6.42-14.43,3.98l-8.91-4.39c-4.46-2.19-10.85-1.03-14.25,2.59l-6.8,7.24c-2.14,2.28-5.21,3.46-8.28,3.46Zm-21.85-11.46c2.89,0,5.78.81,7.98,2.44l7.99,5.91c3.95,2.92,9.9,2.39,13.27-1.19l6.8-7.24c3.75-3.99,10.79-5.27,15.7-2.85l8.91,4.39c4.41,2.17,10.17.58,12.84-3.54l5.4-8.34c2.97-4.59,9.67-7.11,14.94-5.61l9.55,2.72c4.73,1.35,10.11-1.25,12-5.78l3.83-9.17c2.11-5.05,8.25-8.71,13.7-8.18l9.89.97c4.9.49,9.73-3.03,10.78-7.83l2.13-9.71c1.17-5.34,6.56-10.05,12.01-10.5l9.9-.81c4.9-.4,9.03-4.72,9.21-9.63l.36-9.93c.2-5.47,4.66-11.06,9.95-12.47l9.6-2.56c4.75-1.27,8.04-6.25,7.34-11.12l-1.42-9.83c-.78-5.42,2.61-11.72,7.56-14.05l8.99-4.23c4.45-2.09,6.79-7.59,5.24-12.25l-3.15-9.42c-1.73-5.19.48-11.99,4.93-15.17l8.09-5.77c4-2.85,5.33-8.68,2.96-12.99l-4.78-8.71c-2.63-4.79-1.67-11.89,2.14-15.81l6.93-7.12c3.43-3.52,3.69-9.49.6-13.31l-6.26-7.72c-3.45-4.25-3.77-11.4-.72-15.94l5.54-8.25c2.74-4.08,1.94-10-1.79-13.2l-7.54-6.47c-4.15-3.56-5.74-10.54-3.55-15.55l3.98-9.1c1.97-4.5.12-10.19-4.12-12.67l-8.57-5.02c-4.72-2.77-7.53-9.35-6.27-14.67l2.29-9.67c1.13-4.78-1.7-10.04-6.31-11.73l-9.33-3.41c-5.14-1.88-9.08-7.85-8.79-13.31l.53-9.92c.26-4.91-3.46-9.58-8.31-10.42l-9.79-1.69c-5.39-.93-10.34-6.1-11.03-11.53l-1.25-9.86c-.61-4.85-5.07-8.77-9.95-8.77h-.08l-9.94.09s-.06,0-.09,0c-5.44,0-11.18-4.19-12.82-9.38l-2.99-9.48c-1.48-4.69-6.62-7.75-11.44-6.83l-9.76,1.86c-5.38,1.02-11.82-2.08-14.37-6.92l-4.63-8.79c-2.29-4.35-7.89-6.45-12.47-4.68l-9.27,3.57c-5.1,1.96-12,.06-15.38-4.24l-6.13-7.82c-3.03-3.87-8.91-4.94-13.11-2.38l-8.49,5.17c-4.67,2.85-11.8,2.2-15.89-1.43l-7.43-6.6c-3.67-3.27-9.65-3.26-13.32,0l-.41-.46.41.46-7.43,6.6c-4.09,3.63-11.22,4.27-15.89,1.43l-8.49-5.17c-4.2-2.56-10.08-1.49-13.11,2.38l-6.13,7.82c-3.37,4.31-10.27,6.21-15.38,4.24l-9.27-3.57c-4.59-1.77-10.18.33-12.47,4.68l-4.63,8.79c-2.55,4.84-9,7.94-14.37,6.92l-9.76-1.86c-4.83-.92-9.96,2.15-11.44,6.83l-2.99,9.48c-1.64,5.19-7.37,9.38-12.82,9.38-.03,0-.06,0-.09,0l-9.94-.09h-.08c-4.88,0-9.34,3.92-9.96,8.77l-1.25,9.86c-.69,5.43-5.63,10.6-11.02,11.53l-9.79,1.69c-4.84.84-8.57,5.51-8.31,10.42l.53,9.92c.29,5.46-3.65,11.44-8.79,13.31l-9.33,3.41c-4.62,1.69-7.45,6.95-6.31,11.73l2.29,9.67c1.26,5.32-1.55,11.9-6.27,14.67l-8.57,5.02c-4.24,2.48-6.09,8.17-4.12,12.67l3.98,9.1c2.19,5.01.6,11.99-3.55,15.55l-7.54,6.47c-3.73,3.2-4.53,9.12-1.79,13.2l5.54,8.25c3.05,4.54,2.73,11.69-.72,15.94l-6.26,7.72c-3.1,3.82-2.83,9.79.6,13.31l6.93,7.12c3.81,3.92,4.77,11.01,2.14,15.81l-4.78,8.71c-2.37,4.31-1.04,10.13,2.96,12.99l8.09,5.77c4.45,3.18,6.66,9.98,4.93,15.17l-3.15,9.42c-1.56,4.66.79,10.16,5.24,12.25l8.99,4.23c4.95,2.33,8.34,8.63,7.56,14.05l-1.42,9.83c-.7,4.86,2.59,9.85,7.34,11.12l9.6,2.56c5.29,1.41,9.75,7.01,9.95,12.47l.36,9.93c.18,4.91,4.31,9.23,9.21,9.63l9.9.81c5.45.45,10.84,5.15,12.01,10.5l2.13,9.71c1.05,4.8,5.89,8.32,10.78,7.83l9.89-.97c5.45-.52,11.59,3.13,13.7,8.18l3.83,9.17c1.89,4.53,7.28,7.12,12,5.78l9.55-2.72c5.26-1.5,11.96,1.01,14.94,5.61l5.4,8.34c2.67,4.12,8.43,5.71,12.84,3.54l8.91-4.39c4.91-2.42,11.95-1.14,15.7,2.85l6.8,7.24c3.37,3.58,9.32,4.12,13.27,1.19l7.99-5.91c2.2-1.63,5.09-2.44,7.98-2.44Z"/>
    </g>
    <g>
      <circle class="cls-1" cx="399.97" cy="399.97" r="232.79"/>
      <path class="cls-3" d="m399.97,634.65c-62.69,0-121.62-24.41-165.95-68.74-44.33-44.33-68.74-103.26-68.74-165.95s24.41-121.62,68.74-165.95c44.33-44.33,103.26-68.74,165.95-68.74s121.62,24.41,165.95,68.74c44.33,44.33,68.74,103.26,68.74,165.95s-24.41,121.62-68.74,165.95c-44.33,44.33-103.26,68.74-165.95,68.74Zm0-465.58c-127.32,0-230.9,103.58-230.9,230.9s103.58,230.9,230.9,230.9,230.9-103.58,230.9-230.9-103.58-230.9-230.9-230.9Z"/>
    </g>
    <g>
      <circle class="cls-1" cx="399.97" cy="399.97" r="222.38"/>
      <path class="cls-6" d="m399.97,624.24c-59.91,0-116.23-23.33-158.59-65.69-42.36-42.36-65.69-98.68-65.69-158.59s23.33-116.23,65.69-158.59c42.36-42.36,98.68-65.69,158.59-65.69s116.23,23.33,158.59,65.69c42.36,42.36,65.69,98.68,65.69,158.59s-23.33,116.23-65.69,158.59c-42.36,42.36-98.68,65.69-158.59,65.69Zm0-444.76c-121.58,0-220.49,98.91-220.49,220.49s98.91,220.49,220.49,220.49,220.49-98.91,220.49-220.49-98.91-220.49-220.49-220.49Z"/>
    </g>
    <g>
      <circle class="cls-1" cx="399.97" cy="399.97" r="158.03" transform="translate(-165.67 399.97) rotate(-45)"/>
      <path class="cls-6" d="m399.97,562.73c-89.75,0-162.76-73.02-162.76-162.76s73.02-162.76,162.76-162.76,162.76,73.02,162.76,162.76-73.02,162.76-162.76,162.76Zm0-316.07c-84.53,0-153.3,68.77-153.3,153.3s68.77,153.3,153.3,153.3,153.3-68.77,153.3-153.3-68.77-153.3-153.3-153.3Z"/>
    </g>
    <g>
      <circle class="cls-1" cx="399.97" cy="399.97" r="146.68"/>
      <path class="cls-6" d="m399.97,547.12c-81.14,0-147.15-66.01-147.15-147.15s66.01-147.15,147.15-147.15,147.15,66.01,147.15,147.15-66.01,147.15-147.15,147.15Zm0-293.36c-80.62,0-146.2,65.59-146.2,146.2s65.59,146.2,146.2,146.2,146.2-65.59,146.2-146.2-65.59-146.2-146.2-146.2Z"/>
    </g>
  </g>
  <g>
    <g>
      <path class="cls-5" d="m159.79,511.65c-39.68,4.27-79.22,9.46-118.66,15.58,11.69-23.66,23.71-47.15,36.05-70.48-18.45-19.22-37.17-38.16-56.15-56.85,41.65-6.47,83.4-11.95,125.31-16.45,4.48,42.74,8.97,85.47,13.45,128.21Z"/>
      <path class="cls-1" d="m40.05,528.03l.53-1.07c11.54-23.36,23.6-46.94,35.85-70.1-18.21-18.96-36.99-37.98-55.83-56.52l-.88-.87,1.22-.19c41.45-6.44,83.62-11.97,125.33-16.46l.62-.07.06.62,13.52,128.82-.61.07c-39.47,4.25-79.38,9.49-118.63,15.58l-1.18.18Zm-17.7-127.71c18.66,18.38,37.25,37.22,55.29,56l.31.32-.21.4c-12.13,22.92-24.08,46.26-35.52,69.4,38.69-5.98,78-11.14,116.9-15.34l-13.33-126.98c-41.08,4.42-82.6,9.87-123.44,16.19Z"/>
    </g>
    <g>
      <path class="cls-2" d="m112.31,479.66c15.95,10.49,31.8,21.11,47.48,31.99-4.48-42.74-8.97-85.47-13.45-128.21-11.82,31.91-23.16,63.97-34.03,96.21Z"/>
      <path class="cls-1" d="m160.55,512.93l-1.11-.77c-14.18-9.84-29.71-20.3-47.47-31.98l-.4-.26.15-.45c10.79-32.02,22.24-64.39,34.03-96.23l.92-2.49,13.87,132.19Zm-47.5-33.53c17.14,11.28,32.2,21.42,45.99,30.97l-13.04-124.23c-11.41,30.87-22.49,62.23-32.95,93.26Z"/>
    </g>
    <g>
      <path class="cls-5" d="m640.21,511.65c39.68,4.27,79.22,9.46,118.66,15.58-11.69-23.66-23.71-47.15-36.05-70.48,18.45-19.22,37.17-38.16,56.15-56.85-41.65-6.47-83.4-11.95-125.31-16.45-4.48,42.74-8.97,85.47-13.45,128.21Z"/>
      <path class="cls-1" d="m759.95,528.03l-1.18-.18c-39.26-6.09-79.17-11.33-118.63-15.58l-.61-.07,13.58-129.44.62.07c41.71,4.48,83.88,10.02,125.33,16.46l1.22.19-.88.87c-18.83,18.54-37.61,37.55-55.83,56.52,12.25,23.16,24.31,46.74,35.85,70.1l.53,1.07Zm-119.06-16.92c38.89,4.2,78.2,9.35,116.9,15.34-11.44-23.13-23.39-46.47-35.52-69.4l-.21-.4.31-.32c18.04-18.79,36.63-37.62,55.29-56-40.84-6.32-82.36-11.77-123.44-16.19l-13.33,126.98Z"/>
    </g>
    <g>
      <path class="cls-2" d="m687.69,479.66c-15.94,10.49-31.81,21.1-47.48,31.99,4.48-42.74,8.97-85.47,13.45-128.21,11.82,31.91,23.16,63.97,34.03,96.21Z"/>
      <path class="cls-1" d="m639.45,512.93l13.87-132.19.92,2.49c11.79,31.81,23.24,64.19,34.03,96.23l.15.45-.4.26c-18.45,12.14-33.53,22.3-47.47,31.99l-1.11.77Zm14.55-126.79l-13.04,124.23c13.54-9.39,28.2-19.26,45.98-30.97-10.46-31.05-21.54-62.4-32.95-93.26Z"/>
    </g>
    <g>
      <path class="cls-4" d="m400,332.99c-101.54.26-202.75,6.51-303.55,18.74,5.29,42.64,10.57,85.29,15.86,127.93,95.54-11.58,191.45-17.5,287.69-17.76,96.24.26,192.15,6.18,287.69,17.76,5.29-42.64,10.57-85.29,15.86-127.93-100.8-12.23-202.01-18.48-303.55-18.74Z"/>
      <path class="cls-1" d="m688.23,480.35l-.61-.07c-95.09-11.53-191.86-17.5-287.62-17.76-95.76.26-192.53,6.23-287.62,17.76l-.61.07-16.01-129.16.62-.07c100.37-12.18,202.52-18.48,303.62-18.75h0c101.1.26,203.26,6.57,303.62,18.75l.62.07-16.01,129.16Zm-288.23-19.07c95.61.26,192.22,6.21,287.15,17.69l15.71-126.7c-100.12-12.12-202.01-18.4-302.86-18.66-100.84.26-202.73,6.54-302.86,18.66l15.71,126.7c94.94-11.48,191.54-17.43,287.15-17.69Z"/>
    </g>
  </g>
  <g>
    <g>
      <g>
        <polygon class="cls-4" points="399.92 264.4 405.93 276.55 419.35 278.49 409.65 287.96 411.95 301.32 399.95 295.02 387.96 301.34 390.24 287.98 380.52 278.52 393.94 276.56 399.92 264.4"/>
        <path class="cls-6" d="m387.14,302.47l2.44-14.28-10.38-10.1,14.33-2.1,6.4-12.99,6.42,12.98,14.34,2.07-10.36,10.12,2.46,14.27-12.83-6.73-12.81,6.75Zm-5.28-23.52l9.05,8.8-2.12,12.44,11.17-5.88,11.18,5.87-2.14-12.44,9.03-8.82-12.5-1.81-5.6-11.32-5.58,11.33-12.49,1.83Z"/>
      </g>
      <g>
        <polygon class="cls-4" points="493.8 311.73 496.98 318.16 504.07 319.18 498.94 324.19 500.16 331.25 493.81 327.92 487.47 331.26 488.68 324.2 483.54 319.2 490.63 318.16 493.8 311.73"/>
        <path class="cls-6" d="m486.65,332.39l1.36-7.98-5.8-5.65,8.01-1.17,3.58-7.26,3.59,7.26,8.01,1.16-5.79,5.66,1.38,7.98-7.17-3.76-7.16,3.77Zm-1.78-12.76l4.47,4.35-1.05,6.15,5.52-2.91,5.52,2.9-1.06-6.15,4.46-4.36-6.17-.89-2.76-5.59-2.75,5.59-6.17.9Z"/>
      </g>
      <g>
        <polygon class="cls-4" points="446.86 284.11 451.4 293.3 461.55 294.77 454.22 301.93 455.96 312.03 446.88 307.27 437.81 312.05 439.53 301.94 432.18 294.79 442.33 293.31 446.86 284.11"/>
        <path class="cls-6" d="m436.99,313.18l1.88-11.02-8.01-7.8,11.06-1.62,4.94-10.03,4.96,10.02,11.07,1.6-8,7.81,1.9,11.02-9.9-5.2-9.89,5.21Zm-3.47-17.96l6.68,6.5-1.57,9.19,8.25-4.35,8.26,4.33-1.58-9.19,6.67-6.51-9.23-1.33-4.13-8.36-4.12,8.36-9.22,1.35Z"/>
      </g>
      <g>
        <polygon class="cls-4" points="353.02 284.19 357.57 293.38 367.72 294.85 360.38 302.01 362.12 312.11 353.04 307.35 343.97 312.13 345.7 302.02 338.35 294.87 348.49 293.39 353.02 284.19"/>
        <path class="cls-6" d="m343.15,313.26l1.88-11.02-8.01-7.8,11.06-1.62,4.94-10.03,4.96,10.02,11.07,1.6-8,7.81,1.9,11.02-9.9-5.2-9.89,5.21Zm-3.47-17.96l6.68,6.5-1.57,9.19,8.25-4.35,8.25,4.33-1.58-9.19,6.67-6.51-9.23-1.33-4.13-8.36-4.12,8.36-9.22,1.35Z"/>
      </g>
      <g>
        <polygon class="cls-4" points="306.13 311.89 309.31 318.32 316.4 319.34 311.27 324.35 312.49 331.41 306.14 328.08 299.8 331.42 301.01 324.36 295.87 319.36 302.96 318.32 306.13 311.89"/>
        <path class="cls-6" d="m298.98,332.55l1.36-7.98-5.8-5.65,8.01-1.17,3.58-7.26,3.59,7.26,8.01,1.16-5.79,5.66,1.38,7.98-7.17-3.76-7.16,3.77Zm-1.78-12.76l4.47,4.35-1.05,6.15,5.52-2.91,5.52,2.9-1.06-6.14,4.46-4.36-6.17-.89-2.76-5.59-2.75,5.59-6.17.9Z"/>
      </g>
    </g>
    <g>
      <g>
        <polygon class="cls-4" points="400.01 535.12 394 522.97 380.59 521.03 390.29 511.56 387.98 498.21 399.99 504.5 411.98 498.18 409.7 511.55 419.41 521 406 522.96 400.01 535.12"/>
        <path class="cls-6" d="m400.01,536.52l-6.42-12.98-14.34-2.07,10.36-10.12-2.46-14.27,12.83,6.73,12.81-6.75-2.44,14.28,10.38,10.1-14.33,2.09-6.4,12.99Zm-18.09-15.92l12.49,1.8,5.6,11.32,5.58-11.33,12.49-1.83-9.05-8.8,2.12-12.44-11.17,5.88-11.18-5.87,2.14,12.44-9.03,8.82Z"/>
      </g>
      <g>
        <polygon class="cls-4" points="306.14 487.79 302.96 481.37 295.87 480.34 300.99 475.34 299.78 468.28 306.12 471.6 312.46 468.26 311.26 475.33 316.39 480.33 309.3 481.36 306.14 487.79"/>
        <path class="cls-6" d="m306.14,489.19l-3.59-7.26-8.01-1.16,5.79-5.66-1.38-7.98,7.17,3.76,7.16-3.77-1.36,7.98,5.8,5.65-8.01,1.17-3.58,7.26Zm-8.94-9.28l6.17.89,2.76,5.59,2.75-5.59,6.17-.9-4.47-4.35,1.05-6.15-5.52,2.91-5.52-2.9,1.06,6.15-4.46,4.36Z"/>
      </g>
      <g>
        <polygon class="cls-4" points="353.08 515.41 348.53 506.22 338.39 504.76 345.72 497.6 343.98 487.49 353.06 492.26 362.13 487.48 360.4 497.58 367.75 504.73 357.61 506.22 353.08 515.41"/>
        <path class="cls-6" d="m353.08,516.81l-4.96-10.02-11.07-1.6,8-7.81-1.9-11.02,9.9,5.19,9.89-5.21-1.88,11.02,8.01,7.8-11.06,1.62-4.94,10.03Zm-13.36-12.49l9.23,1.33,4.13,8.36,4.12-8.36,9.22-1.35-6.68-6.5,1.57-9.19-8.25,4.34-8.25-4.33,1.58,9.19-6.67,6.51Z"/>
      </g>
      <g>
        <polygon class="cls-4" points="446.91 515.33 442.37 506.14 432.22 504.68 439.56 497.52 437.81 487.41 446.89 492.18 455.96 487.4 454.24 497.5 461.59 504.65 451.44 506.14 446.91 515.33"/>
        <path class="cls-6" d="m446.91,516.73l-4.96-10.02-11.07-1.6,8-7.81-1.9-11.02,9.9,5.19,9.89-5.21-1.88,11.02,8.01,7.8-11.06,1.62-4.94,10.03Zm-13.36-12.49l9.23,1.33,4.13,8.36,4.12-8.36,9.22-1.35-6.68-6.5,1.57-9.19-8.25,4.34-8.26-4.33,1.58,9.19-6.67,6.51Z"/>
      </g>
      <g>
        <polygon class="cls-4" points="493.81 487.63 490.63 481.21 483.54 480.18 488.67 475.18 487.45 468.12 493.79 471.44 500.13 468.1 498.93 475.17 504.06 480.17 496.97 481.2 493.81 487.63"/>
        <path class="cls-6" d="m493.81,489.03l-3.59-7.26-8.01-1.16,5.79-5.66-1.38-7.98,7.17,3.76,7.16-3.77-1.36,7.98,5.8,5.65-8.01,1.17-3.58,7.26Zm-8.94-9.28l6.17.89,2.76,5.59,2.75-5.59,6.17-.9-4.47-4.35,1.05-6.15-5.52,2.91-5.52-2.9,1.06,6.15-4.46,4.36Z"/>
      </g>
    </g>
  </g>
  <g>
    <path class="cls-3" d="m211.62,306.84l7.42-13.07c1.62-2.85,3.77-4.45,6.45-4.8,2.69-.35,5.76.46,9.24,2.43,3.57,2.03,5.92,4.38,7.05,7.07,1.13,2.69.8,5.61-1,8.78l-2.44,4.31,13.12,7.44-4.48,7.9-35.35-20.06Zm19.55.65l1.09-1.93c.86-1.52,1.1-2.79.72-3.82-.38-1.03-1.14-1.87-2.29-2.51-1.11-.63-2.2-.9-3.27-.8-1.07.09-2.03.88-2.86,2.35l-1.27,2.24,7.88,4.48Z"/>
    <path class="cls-3" d="m265.45,286.65l-6.39,8.03,4.36,5.29-5.75,7.23-24.96-33.91,6.14-7.72,38.65,16.69-5.89,7.41-6.16-3.03Zm-8.05-4l-13.45-6.57,9.45,11.6,4-5.03Z"/>
    <path class="cls-3" d="m248.29,254.46l20.29-18.55,6.77,7.41-6.81,6.22,20.65,22.59-6.67,6.1-20.65-22.59-6.81,6.22-6.77-7.41Z"/>
    <path class="cls-3" d="m276.38,230.08l20.35-13.15,4.71,7.29-12.74,8.23,3.51,5.43,11.82-7.64,4.5,6.96-11.82,7.64,4.35,6.73,13.11-8.47,5,7.73-20.72,13.39-22.06-34.14Z"/>
    <path class="cls-3" d="m306.49,211.64l7.79-3.25,18.82,16.52-8.64-20.76,7.87-3.28,15.62,37.52-7.87,3.28-18.7-16.39,8.58,20.6-7.85,3.27-15.62-37.52Z"/>
    <path class="cls-3" d="m341.62,197.98l26.86-5.85,2.14,9.81-9.01,1.96,6.52,29.91-8.83,1.93-6.52-29.91-9.01,1.96-2.14-9.81Z"/>
    <path class="cls-3" d="m396.71,189.92l15.02.6c3.27.13,5.68,1.31,7.22,3.54,1.54,2.23,2.23,5.33,2.07,9.32-.16,4.1-1.18,7.27-3.05,9.51-1.87,2.24-4.62,3.28-8.27,3.14l-4.95-.2-.6,15.07-9.07-.36,1.63-40.61Zm8.38,17.68l2.21.09c1.74.07,2.98-.3,3.72-1.11.74-.81,1.13-1.87,1.19-3.19.05-1.27-.21-2.37-.79-3.28-.58-.91-1.71-1.4-3.4-1.47l-2.57-.1-.36,9.06Z"/>
    <path class="cls-3" d="m431.79,192.29l23.71,4.99-1.79,8.49-14.85-3.12-1.33,6.32,13.77,2.9-1.71,8.11-13.77-2.9-1.65,7.84,15.28,3.21-1.89,9.01-24.14-5.08,8.36-39.77Z"/>
    <path class="cls-3" d="m466.19,200.41l7.82,3.19,1.71,24.98,8.49-20.82,7.89,3.22-15.35,37.63-7.89-3.22-1.72-24.8-8.43,20.66-7.87-3.21,15.35-37.63Z"/>
    <path class="cls-3" d="m502.63,216.58l11.29,7.27c2.23,1.43,3.75,3.01,4.58,4.73.83,1.72,1.19,3.66,1.07,5.8-.12,2.15-.64,4.39-1.58,6.73-.94,2.34-2.16,4.68-3.66,7.01-2.35,3.65-4.47,6.29-6.37,7.92-1.9,1.63-3.81,2.78-5.75,3.45-1.94.68-3.66.85-5.17.51-2.07-.45-3.78-1.11-5.13-1.99l-11.29-7.27,22-34.17Zm2.62,12.63l-12.02,18.67,1.86,1.2c1.59,1.02,2.88,1.51,3.86,1.45.99-.06,2.06-.57,3.23-1.55s2.63-2.83,4.39-5.56c2.33-3.62,3.5-6.37,3.51-8.26,0-1.88-.97-3.46-2.94-4.73l-1.9-1.22Z"/>
    <path class="cls-3" d="m533.31,237.99l6.87,5.91-26.52,30.79-6.87-5.91,26.52-30.79Z"/>
    <path class="cls-3" d="m549.13,251.86l5.54,6.37-9.74,23.07,16.97-14.75,5.59,6.43-30.67,26.67-5.59-6.43,9.65-22.91-16.84,14.64-5.58-6.42,30.67-26.67Z"/>
    <path class="cls-3" d="m559.38,308.37l7.31-4.25,7.02,12.08-14.98,8.7c-3.53-1.04-6.21-2.22-8.04-3.54-1.82-1.32-3.44-3.2-4.86-5.64-1.74-3-2.46-5.86-2.13-8.58.32-2.72,1.59-5.42,3.8-8.09,2.21-2.68,5.13-5.07,8.78-7.19,3.84-2.23,7.5-3.6,11-4.1,3.5-.51,6.62-.09,9.37,1.25,2.13,1.06,4.04,3.03,5.72,5.93,1.62,2.8,2.49,5.09,2.59,6.89.1,1.79-.32,3.58-1.27,5.35-.95,1.77-2.42,3.55-4.42,5.33l-6.25-6.46c1.15-1.08,1.86-2.2,2.13-3.35.27-1.15.07-2.3-.59-3.45-1-1.71-2.62-2.6-4.86-2.66-2.25-.06-5.16.95-8.74,3.03-3.8,2.21-6.22,4.3-7.25,6.28-1.03,1.98-1.01,3.89.06,5.73.51.87,1.17,1.61,1.98,2.2.81.59,1.94,1.15,3.38,1.68l3.31-1.92-3.04-5.23Z"/>
  </g>
  <g>
    <path class="cls-3" d="m242.77,474.44l7.82,13.81c1.7,3.01,2.04,5.79,1,8.36-1.03,2.56-3.29,4.83-6.76,6.79-3.57,2.02-6.82,2.79-9.76,2.29-2.94-.49-5.35-2.42-7.25-5.76l-2.57-4.55-13.12,7.43-4.72-8.34,35.37-20.02Zm-10.36,16.88l1.15,2.04c.91,1.6,1.91,2.52,3.01,2.75,1.1.23,2.22.03,3.36-.62,1.11-.63,1.89-1.44,2.35-2.44.45-1,.24-2.28-.64-3.83l-1.34-2.37-7.89,4.47Z"/>
    <path class="cls-3" d="m240.51,532.69l-6.72-8.5-6.2,2.98-6.04-7.65,39.08-16.09,6.46,8.17-24.69,34.31-6.2-7.84,4.31-5.37Zm5.67-7l9.35-11.74-13.55,6.41,4.21,5.32Z"/>
    <path class="cls-3" d="m271.68,517.62l21.33,19.67-6.8,7.38-7.16-6.6-20.75,22.5-7.02-6.47,20.75-22.5-7.16-6.6,6.8-7.38Z"/>
    <path class="cls-3" d="m295.05,538.67l21.44,13.95-4.73,7.27-13.42-8.74-3.52,5.41,12.45,8.1-4.52,6.95-12.45-8.1-4.37,6.71,13.81,8.99-5.02,7.71-21.83-14.21,22.17-34.06Z"/>
    <path class="cls-3" d="m319.9,554.59l8.23,3.42,2.12,25.23,8.62-20.77,8.31,3.45-15.58,37.54-8.31-3.45-2.13-25.04-8.56,20.61-8.29-3.44,15.58-37.54Z"/>
    <path class="cls-3" d="m349.55,566.63l28.38,6.01-2.08,9.82-9.52-2.02-6.34,29.94-9.34-1.98,6.34-29.94-9.52-2.02,2.08-9.82Z"/>
    <path class="cls-3" d="m392.24,573.7l15.86-.42c3.45-.09,6.07.92,7.85,3.04,1.78,2.12,2.72,5.17,2.83,9.16.11,4.1-.74,7.33-2.55,9.69-1.81,2.36-4.64,3.59-8.49,3.69l-5.22.14.4,15.08-9.58.26-1.09-40.63Zm10.05,17.07l2.34-.06c1.84-.05,3.12-.5,3.84-1.37.72-.86,1.07-1.95,1.03-3.26-.04-1.28-.39-2.35-1.06-3.22-.67-.87-1.9-1.28-3.68-1.23l-2.72.07.24,9.06Z"/>
    <path class="cls-3" d="m421.52,572.55l25.1-4.95,1.68,8.51-15.71,3.1,1.25,6.34,14.57-2.87,1.6,8.13-14.57,2.87,1.55,7.86,16.17-3.19,1.78,9.03-25.55,5.04-7.86-39.88Z"/>
    <path class="cls-3" d="m450.42,566.64l8.28-3.3,19.13,16.59-8.32-20.89,8.36-3.33,15.04,37.76-8.36,3.33-19-16.45,8.26,20.73-8.34,3.32-15.04-37.76Z"/>
    <path class="cls-3" d="m482.09,553.4l11.94-7.65c2.35-1.51,4.52-2.31,6.51-2.4,1.99-.09,3.96.35,5.91,1.31,1.95.97,3.81,2.35,5.57,4.17,1.76,1.81,3.39,3.88,4.89,6.22,2.34,3.66,3.85,6.7,4.51,9.12.66,2.42.86,4.67.61,6.75-.25,2.08-.88,3.76-1.87,5.04-1.36,1.75-2.76,3.09-4.19,4l-11.94,7.65-21.94-34.21Zm13,2.6l11.99,18.7,1.97-1.26c1.68-1.08,2.72-2.09,3.11-3.03.4-.94.4-2.16.02-3.64-.38-1.48-1.45-3.59-3.2-6.33-2.32-3.62-4.36-5.82-6.12-6.58-1.76-.76-3.68-.48-5.76.86l-2,1.28Z"/>
    <path class="cls-3" d="m508.26,535.56l7.3-6.18,26.26,31.02-7.3,6.18-26.26-31.02Z"/>
    <path class="cls-3" d="m519.52,526.5l5.94-6.65,24.52,6.31-16.77-14.98,6-6.71,30.3,27.08-6,6.71-24.35-6.25,16.64,14.87-5.98,6.69-30.3-27.08Z"/>
    <path class="cls-3" d="m572.21,500.45l-7.28-4.29,7.49-12.71,14.93,8.8c.75,3.72.96,6.74.65,9.08-.31,2.33-1.23,4.78-2.74,7.35-1.86,3.16-4.09,5.32-6.68,6.47-2.59,1.16-5.61,1.46-9.06.9-3.45-.56-6.99-1.91-10.62-4.05-3.82-2.25-6.79-4.81-8.91-7.67-2.12-2.86-3.23-5.88-3.33-9.06-.07-2.47.8-5.23,2.59-8.28,1.73-2.94,3.38-4.93,4.94-5.98,1.56-1.04,3.36-1.61,5.4-1.71,2.04-.09,4.33.28,6.88,1.13l-2.81,9.03c-1.51-.45-2.85-.5-4.01-.13-1.16.37-2.1,1.16-2.81,2.37-1.06,1.8-1.09,3.73-.07,5.77,1.02,2.04,3.31,4.12,6.87,6.22,3.79,2.23,6.82,3.29,9.08,3.16,2.26-.12,3.96-1.16,5.11-3.09.54-.92.88-1.9,1.03-2.94.14-1.04.11-2.35-.1-3.92l-3.3-1.94-3.24,5.5Z"/>
  </g>
  <g>
    <path class="cls-1" d="m118.55,381.71c8.53-1.35,12.8-2,21.34-3.25,4.65-.68,8.41.71,11.25,4.16,2.84,3.45,4.73,8.66,5.69,15.62.99,7.16.52,12.92-1.39,17.3-1.91,4.38-5.37,6.92-10.42,7.66-2.74.4-4.11.61-6.85,1.02,1.59,10.51,2.38,15.76,3.97,26.26-4.95.75-7.43,1.13-12.38,1.91-3.73-23.57-7.47-47.13-11.2-70.7Zm17.45,28.18c1.24-.19,1.86-.28,3.09-.46,2.43-.36,4.04-1.35,4.81-2.96.77-1.61.99-3.56.66-5.84-.32-2.22-1.03-4.05-2.11-5.47-1.09-1.42-2.82-1.96-5.2-1.6-1.45.22-2.18.32-3.63.54.95,6.32,1.43,9.47,2.38,15.79Z"/>
    <path class="cls-1" d="m188.48,432.23c-5.65.69-8.48,1.05-14.13,1.79-.17,4.79-.25,7.18-.42,11.97-5.05.67-7.57,1.01-12.61,1.71,1.74-24.35,3.66-48.68,5.75-73.01,5.61-.73,8.42-1.09,14.04-1.78,8.08,23.04,16,46.12,23.75,69.27-5.18.59-7.77.89-12.95,1.52-1.37-4.59-2.06-6.89-3.44-11.48Zm-4.49-15.04c-3.06-9.99-4.61-14.98-7.72-24.97-.51,10.44-.75,15.66-1.2,26.1,3.57-.46,5.35-.69,8.92-1.13Z"/>
    <path class="cls-1" d="m193.94,371.39c13.05-1.51,26.12-2.87,39.2-4.09.66,7.04.98,10.56,1.64,17.6-5.21.49-7.82.74-13.03,1.26,1.8,17.88,3.6,35.76,5.4,53.63-4.95.5-7.43.76-12.38,1.29-1.93-17.86-3.86-35.73-5.78-53.59-5.21.56-7.81.85-13.02,1.45-.81-7.02-1.22-10.54-2.03-17.56Z"/>
    <path class="cls-1" d="m238.95,366.77c11.54-1,23.07-1.92,34.62-2.78.43,6.1.65,9.15,1.08,15.25-8.6.61-12.9.94-21.49,1.65.38,4.54.56,6.8.94,11.34,7.92-.66,11.88-.96,19.81-1.53l1.04,14.56c-7.86.56-11.79.86-19.65,1.51.47,5.63.7,8.44,1.16,14.06,8.64-.72,12.97-1.05,21.62-1.65l1.14,16.17c-11.29.83-22.56,1.73-33.84,2.71-2.14-23.76-4.28-47.53-6.41-71.29Z"/>
    <path class="cls-1" d="m281.24,363.47c4.83-.32,7.24-.47,12.07-.76,6,12.86,11.92,25.75,17.77,38.68-.67-13.18-1.34-26.37-2.01-39.55,4.88-.25,7.32-.36,12.19-.58,1.05,23.84,2.1,47.67,3.14,71.51-4.68.21-7.03.32-11.71.55-5.72-12.84-11.51-25.64-17.39-38.4.78,13.08,1.56,26.16,2.33,39.23-4.67.28-7.01.42-11.68.73-1.58-23.81-3.16-47.62-4.73-71.42Z"/>
    <path class="cls-1" d="m326.92,361.02c13.11-.54,26.23-.93,39.35-1.18.13,7.07.2,10.6.33,17.67-5.23.1-7.84.16-13.07.3.47,17.96.94,35.92,1.42,53.89-4.97.13-7.46.2-12.43.37-.6-17.96-1.2-35.92-1.8-53.88-5.23.18-7.84.27-13.07.49-.29-7.06-.43-10.6-.72-17.66Z"/>
    <path class="cls-1" d="m391.59,359.55c8.61-.04,12.91-.04,21.52.02,4.69.03,8.18,1.98,10.46,5.82,2.28,3.84,3.35,9.28,3.25,16.31-.11,7.23-1.44,12.85-3.98,16.89-2.54,4.04-6.34,6.03-11.43,6-2.76-.02-4.15-.02-6.91-.03-.02,10.62-.04,15.94-.06,26.56-5-.01-7.49,0-12.49.02-.12-23.86-.23-47.72-.35-71.58Zm12.93,30.5c1.25,0,1.87,0,3.12.01,2.45.01,4.18-.72,5.19-2.19,1-1.47,1.52-3.37,1.54-5.68.02-2.25-.4-4.15-1.26-5.72-.86-1.57-2.49-2.36-4.89-2.37-1.46,0-2.19,0-3.66-.01-.01,6.39-.02,9.58-.04,15.97Z"/>
    <path class="cls-1" d="m433.89,359.84c11.57.25,23.12.58,34.69.98-.23,6.11-.35,9.16-.58,15.27-8.61-.33-12.92-.46-21.53-.69-.12,4.55-.18,6.82-.29,11.37,7.94.2,11.91.33,19.85.62-.22,5.84-.32,8.75-.54,14.59-7.87-.29-11.81-.41-19.68-.62-.15,5.64-.22,8.46-.36,14.11,8.66.22,13,.36,21.66.69l-.62,16.2c-11.31-.39-22.6-.71-33.91-.96.44-23.86.89-47.71,1.33-71.57Z"/>
    <path class="cls-1" d="m476.27,361.12c4.83.2,7.25.31,12.08.55,4.57,13.43,9.07,26.89,13.48,40.38.76-13.18,1.52-26.36,2.28-39.54,4.88.28,7.31.43,12.19.74-1.53,23.81-3.07,47.62-4.6,71.43-4.68-.3-7.02-.44-11.7-.71-4.3-13.38-8.68-26.73-13.13-40.06-.64,13.09-1.28,26.17-1.92,39.26-4.67-.23-7.01-.33-11.68-.53,1-23.84,2.01-47.68,3.01-71.52Z"/>
    <path class="cls-1" d="m525.06,363.84c7.68.53,11.52.82,19.2,1.43,3.78.3,6.77,1.44,8.94,3.39,2.17,1.95,3.87,4.63,5.1,8.04,1.22,3.41,1.97,7.32,2.25,11.72.28,4.41.2,9.04-.24,13.9-.69,7.62-1.73,13.48-3.09,17.59-1.36,4.11-3.04,7.51-5.03,10.19-1.99,2.68-4.02,4.41-6.09,5.19-2.83,1.06-5.35,1.52-7.56,1.34-7.37-.59-11.06-.87-18.43-1.38,1.65-23.8,3.3-47.61,4.95-71.41Zm11.68,17.11c-1,13-1.99,26-2.99,39,1.23.09,1.84.14,3.07.24,2.62.2,4.52-.15,5.71-1.09,1.19-.93,2.2-2.64,3.04-5.14.84-2.49,1.5-6.6,1.98-12.3.63-7.56.35-12.79-.84-15.7-1.2-2.91-3.46-4.5-6.78-4.76-1.28-.1-1.92-.15-3.19-.25Z"/>
    <path class="cls-1" d="m570.82,367.6c5.17.49,7.76.75,12.93,1.28-2.43,23.74-4.86,47.47-7.28,71.21-4.97-.51-7.45-.75-12.42-1.22,2.26-23.75,4.51-47.51,6.77-71.26Z"/>
    <path class="cls-1" d="m593.09,369.86c4.82.52,7.22.79,12.04,1.34,3.7,13.7,7.31,27.42,10.85,41.17,1.61-13.1,3.23-26.2,4.84-39.3,4.85.6,7.28.91,12.13,1.54-3.08,23.66-6.16,47.32-9.24,70.98-4.66-.61-6.99-.9-11.65-1.48-3.43-13.63-6.93-27.24-10.52-40.83-1.49,13.02-2.98,26.03-4.47,39.05-4.65-.53-6.98-.79-11.64-1.29,2.55-23.72,5.1-47.45,7.66-71.17Z"/>
    <path class="cls-1" d="m655.77,423.85c.87-5.89,1.3-8.84,2.17-14.73,7.8,1.15,11.7,1.74,19.5,2.98-1.59,10.05-3.18,20.09-4.77,30.14-4.36,3.82-8.05,6.32-11.1,7.49-3.05,1.16-6.49,1.46-10.33.9-4.73-.69-8.39-2.68-10.98-5.96-2.59-3.29-4.33-7.88-5.22-13.78-.89-5.9-.85-12.53.13-19.89,1.04-7.74,2.86-14.35,5.5-19.83,2.63-5.47,5.97-9.46,9.99-11.9,3.12-1.9,7.1-2.5,11.86-1.8,4.6.68,7.93,1.91,9.99,3.67,2.06,1.76,3.6,4.25,4.64,7.46,1.03,3.21,1.56,7.16,1.58,11.84-5.14.73-7.7,1.11-12.82,1.87-.1-2.75-.65-4.92-1.64-6.52-1-1.6-2.43-2.53-4.31-2.81-2.79-.41-5.26.94-7.4,4.03-2.13,3.1-3.7,8.26-4.72,15.48-1.09,7.67-1.03,13.27.14,16.79,1.17,3.52,3.22,5.49,6.15,5.92,1.39.2,2.77.05,4.14-.47,1.37-.52,3-1.51,4.89-2.97.4-2.66.61-4,1.01-6.66-3.35-.51-5.02-.76-8.37-1.25Z"/>
  </g>
</svg>